<?xml version="1.0" encoding="UTF-8" standalone="no"?>
<svg
   id="visual"
   viewBox="0 0 900 246.82774"
   width="900"
   height="246.82774"
   version="1.1"
   sodipodi:docname="waves.svg"
   inkscape:version="1.1.2 (0a00cf5339, 2022-02-04)"
   xmlns:inkscape="http://www.inkscape.org/namespaces/inkscape"
   xmlns:sodipodi="http://sodipodi.sourceforge.net/DTD/sodipodi-0.dtd"
   xmlns="http://www.w3.org/2000/svg"
   xmlns:svg="http://www.w3.org/2000/svg">
  <defs
     id="defs15" />
  <sodipodi:namedview
     id="namedview13"
     pagecolor="#ffffff"
     bordercolor="#666666"
     borderopacity="1.0"
     inkscape:pageshadow="2"
     inkscape:pageopacity="0.0"
     inkscape:pagecheckerboard="0"
     showgrid="false"
     inkscape:zoom="0.4552982"
     inkscape:cx="456.84345"
     inkscape:cy="294.31261"
     inkscape:window-width="1280"
     inkscape:window-height="663"
     inkscape:window-x="501"
     inkscape:window-y="307"
     inkscape:window-maximized="0"
     inkscape:current-layer="visual"
     fit-margin-top="0"
     fit-margin-left="0"
     fit-margin-right="0"
     fit-margin-bottom="0" />
  <g
     id="g939"
     transform="scale(1,0.5)"
     style="opacity:0.1">
    <path
       d="m 900,336 -13.7,-15 c -13.6,-15 -41,-45 -68.3,-52 -27.3,-7 -54.7,9 -81.8,32 -27.2,23 -54.2,53 -81.4,43 -27.1,-10 -54.5,-60 -81.8,-67 -27.3,-7 -54.7,29 -82,46 -27.3,17 -54.7,15 -82,3 -27.3,-12 -54.7,-34 -82,-18 -27.3,16 -54.7,70 -81.8,75 C 218,388 191,344 163.8,330 136.7,316 109.3,332 82,352 54.7,372 27.3,396 13.7,408 L 0,420 v 62 l 13.7,5 c 13.6,5 41,15 68.3,-7 27.3,-22 54.7,-76 81.8,-81 27.2,-5 54.2,39 81.4,46 27.1,7 54.5,-23 81.8,-24 27.3,-1 54.7,27 82,41 27.3,14 54.7,14 82,-3 27.3,-17 54.7,-51 82,-46 27.3,5 54.7,49 81.8,62 27.2,13 54.2,-5 81.4,-30 27.1,-25 54.5,-57 81.8,-61 27.3,-4 54.7,20 68.3,32 l 13.7,12 z"
       fill="#3c80ff"
       id="path4" />
    <path
       d="m 900,132 -13.7,4 c -13.6,4 -41,12 -68.3,12 -27.3,0 -54.7,-8 -81.8,-1 -27.2,7 -54.2,29 -81.4,33 -27.1,4 -54.5,-10 -81.8,-13 -27.3,-3 -54.7,5 -82,7 -27.3,2 -54.7,-2 -82,-8 -27.3,-6 -54.7,-14 -82,-11 -27.3,3 -54.7,17 -81.8,28 C 218,194 191,202 163.8,189 136.7,176 109.3,142 82,133 54.7,124 27.3,140 13.7,148 L 0,156 v 266 l 13.7,-12 c 13.6,-12 41,-36 68.3,-56 27.3,-20 54.7,-36 81.8,-22 27.2,14 54.2,58 81.4,53 27.1,-5 54.5,-59 81.8,-75 27.3,-16 54.7,6 82,18 27.3,12 54.7,14 82,-3 27.3,-17 54.7,-53 82,-46 27.3,7 54.7,57 81.8,67 27.2,10 54.2,-20 81.4,-43 27.1,-23 54.5,-39 81.8,-32 27.3,7 54.7,37 68.3,52 l 13.7,15 z"
       fill="#0066ff"
       id="path6" />
    <path
       d="m 900,54 -13.7,2 c -13.6,2 -41,6 -68.3,4 C 790.7,58 763.3,50 736.2,55 709,60 682,78 654.8,86 627.7,94 600.3,92 573,89 545.7,86 518.3,82 491,75 463.7,68 436.3,58 409,52 381.7,46 354.3,44 327,53 299.7,62 272.3,82 245.2,90 218,98 191,94 163.8,85 136.7,76 109.3,62 82,58 54.7,54 27.3,60 13.7,63 L 0,66 v 92 l 13.7,-8 c 13.6,-8 41,-24 68.3,-15 27.3,9 54.7,43 81.8,56 27.2,13 54.2,5 81.4,-6 27.1,-11 54.5,-25 81.8,-28 27.3,-3 54.7,5 82,11 27.3,6 54.7,10 82,8 27.3,-2 54.7,-10 82,-7 27.3,3 54.7,17 81.8,13 27.2,-4 54.2,-26 81.4,-33 27.1,-7 54.5,1 81.8,1 27.3,0 54.7,-8 68.3,-12 l 13.7,-4 z"
       fill="#0059dd"
       id="path8" />
    <path
       d="M 900,0 H 886.3 C 872.7,0 845.3,0 818,0 790.7,0 763.3,0 736.2,0 709,0 682,0 654.8,0 627.7,0 600.3,0 573,0 545.7,0 518.3,0 491,0 463.7,0 436.3,0 409,0 381.7,0 354.3,0 327,0 299.7,0 272.3,0 245.2,0 218,0 191,0 163.8,0 136.7,0 109.3,0 82,0 54.7,0 27.3,0 13.7,0 H 0 v 68 l 13.7,-3 c 13.6,-3 41,-9 68.3,-5 27.3,4 54.7,18 81.8,27 27.2,9 54.2,13 81.4,5 27.1,-8 54.5,-28 81.8,-37 27.3,-9 54.7,-7 82,-1 27.3,6 54.7,16 82,23 27.3,7 54.7,11 82,14 27.3,3 54.7,5 81.8,-3 27.2,-8 54.2,-26 81.4,-31 27.1,-5 54.5,3 81.8,5 27.3,2 54.7,-2 68.3,-4 L 900,56 Z"
       fill="#004cbb"
       id="path10" />
  </g>
</svg>
